<svg xmlns="http://www.w3.org/2000/svg" width="1920" height="1080" viewBox="200 180 2600 1462">
  <defs>
    <linearGradient id="sky" x1="0" y1="0" x2="0" y2="1">
      <stop offset="0%" stop-color="#8fc8ca"/>
      <stop offset="100%" stop-color="#c8d5c6"/>
    </linearGradient>
    <linearGradient id="sand" x1="0" y1="0" x2="0" y2="1">
      <stop offset="0%" stop-color="#d7b26b"/>
      <stop offset="100%" stop-color="#bf8f4f"/>
    </linearGradient>
    <filter id="grain" x="-20%" y="-20%" width="140%" height="140%">
      <feTurbulence type="fractalNoise" baseFrequency="0.85" numOctaves="2" seed="7" result="noise"/>
      <feColorMatrix type="saturate" values="0"/>
      <feComponentTransfer>
        <feFuncA type="table" tableValues="0 0 0.08 0.12"/>
      </feComponentTransfer>
    </filter>
    <filter id="softgrain" x="-20%" y="-20%" width="140%" height="140%">
      <feTurbulence type="fractalNoise" baseFrequency="0.55" numOctaves="2" seed="11" result="noise"/>
      <feComponentTransfer>
        <feFuncA type="table" tableValues="0 0 0.04 0.08"/>
      </feComponentTransfer>
    </filter>
    <radialGradient id="screenGlow">
      <stop offset="0%" stop-color="#4d9b95" stop-opacity="0.28"/>
      <stop offset="100%" stop-color="#4d9b95" stop-opacity="0"/>
    </radialGradient>
  </defs>

<rect width="3200" height="1800" fill="url(#sky)"/>
<circle cx="2540" cy="260.0" r="90.0" fill="#f3e8b0" fill-opacity="0.55"/>
<path d="M0,950 C250,820 420,840 650,910 C880,980 1090,820 1390,880 C1650,930 1910,760 2200,840 C2480,920 2750,720 3200,850 L3200,1800 L0,1800 Z" fill="#cb6d3b" fill-opacity="0.95"/>
<path d="M0,1120 C220,1040 480,1080 760,1140 C1030,1200 1330,990 1650,1040 C1940,1080 2210,980 2520,1030 C2800,1080 2980,1010 3200,1060 L3200,1800 L0,1800 Z" fill="#9c4f37" fill-opacity="0.92"/>
<rect y="1020" width="3200" height="780" fill="url(#sand)"/>
<g opacity="0.95"><polygon points="480,980 600.0,885.0 730.0,980" fill="#e9d3a7"/><rect x="498.0" y="980" width="210.0" height="56.0" fill="#e9d4af"/></g>
<g opacity="0.95"><polygon points="670,950 766.0,874.0 870.0,950" fill="#e9d3a7"/><rect x="684.4" y="950" width="168.0" height="44.800000000000004" fill="#e9d4af"/></g>
<g opacity="0.95"><polygon points="820,995 904.0,928.5 995.0,995" fill="#e9d3a7"/><rect x="832.6" y="995" width="147.0" height="39.199999999999996" fill="#e9d4af"/></g>
<rect x="980" y="1000" width="10" height="70" fill="#47362b" opacity="0.35"/>
<rect x="1140" y="1000" width="10" height="70" fill="#47362b" opacity="0.35"/>
<rect x="1300" y="1000" width="10" height="70" fill="#47362b" opacity="0.35"/>
<rect x="1460" y="1000" width="10" height="70" fill="#47362b" opacity="0.35"/>
<rect x="1620" y="1000" width="10" height="70" fill="#47362b" opacity="0.35"/>
<rect x="1780" y="1000" width="10" height="70" fill="#47362b" opacity="0.35"/>
<rect x="1940" y="1000" width="10" height="70" fill="#47362b" opacity="0.35"/>
<g opacity="0.16" fill="#47362b"><circle cx="1120" cy="932" r="18"/><rect x="1106" y="940" width="28" height="78" rx="12"/></g>
<rect width="3200" height="1800" fill="#f3e5c7" opacity="0.08" filter="url(#grain)"/>
<g transform="translate(1180.0,650.0)"><ellipse cx="67.4" cy="267.8" rx="77.2" ry="28.1" fill="#47362b" opacity="0.08"/><path d="M14.0,49.9 C8.4,163.3 25.3,226.8 67.4,226.8 C109.5,226.8 132.0,167.8 123.6,49.9 C103.9,22.7 36.5,22.7 14.0,49.9 Z" fill="#96886d" stroke="#47362b" stroke-opacity="0.22"/><path d="M16.8,81.6 C19.2,122.5 12.2,158.8 8.0,190.5" stroke="#96886d" stroke-width="21.6" stroke-linecap="round" opacity="0.95"/><path d="M117.9,81.6 C118.4,113.4 129.6,149.7 138.0,181.4" stroke="#96886d" stroke-width="21.6" stroke-linecap="round" opacity="0.95"/><circle cx="70.2" cy="51.2" r="43.2" fill="#b0a286" stroke="#47362b" stroke-opacity="0.18"/><path d="M11.2,47.5 C25.3,6.5 115.1,5.2 129.2,49.2 L106.7,84.2 C92.7,76.0 47.7,76.0 33.7,84.7 Z" fill="#2f7473"/></g>
<g transform="translate(2180.0,758.2)"><ellipse cx="61.2" cy="243.0" rx="70.1" ry="25.5" fill="#47362b" opacity="0.08"/><path d="M12.7,45.3 C7.6,148.2 22.9,205.8 61.2,205.8 C99.4,205.8 119.8,152.3 112.1,45.3 C94.3,20.6 33.1,20.6 12.7,45.3 Z" fill="#d3b78c" stroke="#47362b" stroke-opacity="0.22"/><path d="M15.3,74.1 C17.4,111.1 11.1,144.1 7.3,172.9" stroke="#d3b78c" stroke-width="19.6" stroke-linecap="round" opacity="0.95"/><path d="M107.0,74.1 C107.4,102.9 117.6,135.8 125.2,164.6" stroke="#d3b78c" stroke-width="19.6" stroke-linecap="round" opacity="0.95"/><circle cx="63.7" cy="47.2" r="39.2" fill="#dcc49d" stroke="#47362b" stroke-opacity="0.18"/><path d="M10.2,43.1 C22.9,5.9 104.5,4.7 117.2,44.7 L96.8,76.4 C84.1,69.0 43.3,69.0 30.6,76.8 Z" fill="#ebd6ab"/></g>
<g transform="translate(2387.0,851.5)"><ellipse cx="26.2" cy="113.5" rx="30.0" ry="15.6" fill="#47362b" opacity="0.08"/><path d="M5.5,20.0 C3.3,65.3 9.8,90.7 26.2,90.7 C42.6,90.7 51.3,67.1 48.0,20.0 C40.4,9.1 14.2,9.1 5.5,20.0 Z" fill="#dbba79" stroke="#47362b" stroke-opacity="0.22"/><path d="M6.6,32.7 C4.5,49.0 1.8,63.5 0.1,76.2" stroke="#dbba79" stroke-width="12.0" stroke-linecap="round" opacity="0.95"/><path d="M45.9,32.7 C49.0,45.4 53.4,59.9 56.7,72.6" stroke="#dbba79" stroke-width="12.0" stroke-linecap="round" opacity="0.95"/><circle cx="27.3" cy="26.0" r="18.0" fill="#e2c68f" stroke="#47362b" stroke-opacity="0.18"/><path d="M4.4,19.8 C9.8,2.7 44.8,2.2 50.2,20.5 L41.5,35.1 C36.0,31.7 18.6,31.7 13.1,35.3 Z" fill="#eedcb6"/></g>
<g transform="translate(2285.0,900.0)"><ellipse cx="22.7" cy="98.4" rx="26.0" ry="13.5" fill="#47362b" opacity="0.08"/><path d="M4.7,17.3 C2.8,56.6 8.5,78.6 22.7,78.6 C36.9,78.6 44.5,58.2 41.6,17.3 C35.0,7.9 12.3,7.9 4.7,17.3 Z" fill="#c39659" stroke="#47362b" stroke-opacity="0.22"/><path d="M5.7,28.3 C5.6,42.5 3.2,55.0 1.8,66.0" stroke="#c39659" stroke-width="10.4" stroke-linecap="round" opacity="0.95"/><path d="M39.7,28.3 C40.8,39.3 44.6,51.9 47.4,62.9" stroke="#c39659" stroke-width="10.4" stroke-linecap="round" opacity="0.95"/><circle cx="23.7" cy="23.6" r="15.6" fill="#d0ac78" stroke="#47362b" stroke-opacity="0.18"/><path d="M3.8,17.2 C8.5,2.3 38.8,1.9 43.5,17.8 L36.0,30.4 C31.2,27.5 16.1,27.5 11.4,30.6 Z" fill="#ebd7b4"/></g>
<polygon points="860,1095 2065,1095 2030,1335 930,1335" fill="#8f6849" stroke="#47362b" stroke-opacity="0.28"/>
<rect x="1140" y="1165" width="560" height="28" rx="10" fill="#6d4d37" opacity="0.35"/>
<polygon points="980,930 1935,930 2065,1095 860,1095" fill="#946e4f" stroke="#47362b" stroke-opacity="0.25"/>
<g transform="translate(1094.7,1008.0) rotate(-4.1)"><rect x="0" y="0" width="190" height="118" rx="6" fill="#d7c099" opacity="0.55"/><rect x="-8" y="-8" width="190" height="118" rx="6" fill="#f3e5c7" stroke="#47362b" stroke-opacity="0.18"/><rect x="12" y="16" width="117.8" height="12" rx="4" fill="#d7c099" opacity="0.35"/><rect x="12" y="38" width="91.2" height="10" rx="4" fill="#d7c099" opacity="0.25"/></g>
<g transform="translate(1130.9,1006.3) rotate(-2.0)"><rect x="0" y="0" width="184" height="113" rx="6" fill="#d7c099" opacity="0.55"/><rect x="-8" y="-8" width="184" height="113" rx="6" fill="#f3e5c7" stroke="#47362b" stroke-opacity="0.18"/><rect x="12" y="16" width="114.1" height="12" rx="4" fill="#d7c099" opacity="0.35"/><rect x="12" y="38" width="88.3" height="10" rx="4" fill="#d7c099" opacity="0.25"/></g>
<g transform="translate(1165.3,1004.6) rotate(-0.0)"><rect x="0" y="0" width="178" height="108" rx="6" fill="#d7c099" opacity="0.55"/><rect x="-8" y="-8" width="178" height="108" rx="6" fill="#f3e5c7" stroke="#47362b" stroke-opacity="0.18"/><rect x="12" y="16" width="110.4" height="12" rx="4" fill="#d7c099" opacity="0.35"/><rect x="12" y="38" width="85.4" height="10" rx="4" fill="#d7c099" opacity="0.25"/></g>
<g transform="translate(1155.6,1003.0) rotate(2.1)"><rect x="0" y="0" width="172" height="103" rx="6" fill="#d7c099" opacity="0.55"/><rect x="-8" y="-8" width="172" height="103" rx="6" fill="#f3e5c7" stroke="#47362b" stroke-opacity="0.18"/><rect x="12" y="16" width="106.6" height="12" rx="4" fill="#d7c099" opacity="0.35"/><rect x="12" y="38" width="82.6" height="10" rx="4" fill="#d7c099" opacity="0.25"/></g>
<g transform="translate(1190.0,977.5) rotate(4.0)"><rect x="0" y="0" width="166" height="98" rx="6" fill="#d7c099" opacity="0.55"/><rect x="-8" y="-8" width="166" height="98" rx="6" fill="#f3e5c7" stroke="#47362b" stroke-opacity="0.18"/><rect x="12" y="16" width="102.9" height="12" rx="4" fill="#d7c099" opacity="0.35"/><rect x="12" y="38" width="79.7" height="10" rx="4" fill="#d7c099" opacity="0.25"/></g>
<g transform="translate(1226.2,975.8) rotate(-4.0)"><rect x="0" y="0" width="160" height="93" rx="6" fill="#d7c099" opacity="0.55"/><rect x="-8" y="-8" width="160" height="93" rx="6" fill="#f3e5c7" stroke="#47362b" stroke-opacity="0.18"/><rect x="12" y="16" width="99.2" height="12" rx="4" fill="#d7c099" opacity="0.35"/><rect x="12" y="38" width="76.8" height="10" rx="4" fill="#d7c099" opacity="0.25"/></g>
<g transform="translate(1214.7,974.1) rotate(-2.1)"><rect x="0" y="0" width="154" height="88" rx="6" fill="#d7c099" opacity="0.55"/><rect x="-8" y="-8" width="154" height="88" rx="6" fill="#f3e5c7" stroke="#47362b" stroke-opacity="0.18"/><rect x="12" y="16" width="95.5" height="12" rx="4" fill="#d7c099" opacity="0.35"/><rect x="12" y="38" width="73.9" height="10" rx="4" fill="#d7c099" opacity="0.25"/></g>
<g transform="translate(1250.9,972.5) rotate(0.0)"><rect x="0" y="0" width="148" height="83" rx="6" fill="#d7c099" opacity="0.55"/><rect x="-8" y="-8" width="148" height="83" rx="6" fill="#f3e5c7" stroke="#47362b" stroke-opacity="0.18"/><rect x="12" y="16" width="91.8" height="12" rx="4" fill="#d7c099" opacity="0.35"/><rect x="12" y="38" width="71.0" height="10" rx="4" fill="#d7c099" opacity="0.25"/></g>
<g transform="translate(1630,968) rotate(-7.1)"><rect width="250" height="158" rx="10" fill="#2f7473" opacity="0.98"/><rect x="18" y="24" width="178" height="18" rx="8" fill="#4d9b95" opacity="0.35"/></g>
<g transform="translate(1495,1035) rotate(-6)"><rect width="96" height="62" rx="8" fill="#eedcb6" stroke="#47362b" stroke-opacity="0.2"/><rect x="10" y="12" width="26" height="24" rx="4" fill="#d7c099" opacity="0.55"/><rect x="44" y="16" width="38" height="8" rx="3" fill="#d7c099" opacity="0.35"/><rect x="44" y="30" width="28" height="6" rx="3" fill="#d7c099" opacity="0.22"/></g>
<g transform="translate(1600,1053) rotate(-2)"><rect width="96" height="62" rx="8" fill="#eedcb6" stroke="#47362b" stroke-opacity="0.2"/><rect x="10" y="12" width="26" height="24" rx="4" fill="#d7c099" opacity="0.55"/><rect x="44" y="16" width="38" height="8" rx="3" fill="#d7c099" opacity="0.35"/><rect x="44" y="30" width="28" height="6" rx="3" fill="#d7c099" opacity="0.22"/></g>
<g transform="translate(1705,1035) rotate(2)"><rect width="96" height="62" rx="8" fill="#eedcb6" stroke="#47362b" stroke-opacity="0.2"/><rect x="10" y="12" width="26" height="24" rx="4" fill="#d7c099" opacity="0.55"/><rect x="44" y="16" width="38" height="8" rx="3" fill="#d7c099" opacity="0.35"/><rect x="44" y="30" width="28" height="6" rx="3" fill="#d7c099" opacity="0.22"/></g>
<g transform="translate(1700,835) rotate(-5)"><ellipse cx="150" cy="150" rx="180" ry="140" fill="url(#screenGlow)" opacity="0.35"/><rect x="0" y="0" width="260" height="170" rx="16" fill="#644734" stroke="#47362b" stroke-opacity="0.3"/><rect x="18" y="18" width="224" height="134" rx="10" fill="#5a9a9a"/><rect x="34" y="40" width="84" height="48" rx="10" fill="#4d9b95" opacity="0.22"/><rect x="130" y="34" width="82" height="20" rx="8" fill="#f3e5c7" opacity="0.15"/><rect x="130" y="66" width="72" height="14" rx="7" fill="#f3e5c7" opacity="0.12"/><rect x="34" y="100" width="176" height="26" rx="8" fill="#f3e5c7" opacity="0.10"/><rect x="102" y="170" width="56" height="40" rx="8" fill="#654835"/></g>
<g transform="translate(1515,985)"><ellipse cx="110" cy="74" rx="95.0" ry="37.2" fill="#4d9b95" opacity="0.12"/><rect x="0" y="0" width="220" height="110" rx="18" fill="#9b8b6d" stroke="#47362b" stroke-opacity="0.25"/><rect x="16" y="18" width="110" height="18" rx="6" fill="#f3e5c7" opacity="0.12"/><circle cx="178" cy="56" r="15" fill="#4d9b95" opacity="0.49"/><circle cx="178" cy="56" r="32" fill="#4d9b95" opacity="0.07"/></g>

<rect width="3200" height="1800" fill="#f3e5c7" opacity="0.06"/>
<rect width="3200" height="1800" fill="#47362b" opacity="0.04" filter="url(#softgrain)"/>
</svg>